<?xml version="1.0" standalone="no"?>
<!DOCTYPE svg PUBLIC "-//W3C//DTD SVG 20010904//EN"
 "http://www.w3.org/TR/2001/REC-SVG-20010904/DTD/svg10.dtd">
<svg version="1.0" xmlns="http://www.w3.org/2000/svg"
 width="628.000000pt" height="435.000000pt" viewBox="0 0 628.000000 435.000000"
 preserveAspectRatio="xMidYMid meet">

<g transform="translate(0.000000,435.000000) scale(0.100000,-0.100000)"
fill="#000000" stroke="none">
<path d="M2414 3801 c-63 -39 -64 -42 -64 -296 1 -249 3 -261 56 -296 28 -18
53 -19 632 -19 l602 0 38 34 37 34 3 231 c3 256 0 274 -61 311 -31 19 -54 20
-622 20 -563 0 -591 -1 -621 -19z"/>
<path d="M3852 3803 c-20 -9 -41 -32 -53 -55 -19 -37 -20 -56 -17 -257 3 -187
5 -221 21 -244 38 -58 10 -56 662 -59 669 -3 632 -7 675 65 18 29 20 52 20
245 0 238 -6 268 -62 302 -32 19 -49 20 -623 20 -525 0 -594 -2 -623 -17z"/>
<path d="M1871 3485 c-148 -157 -362 -443 -490 -657 -29 -49 -54 -88 -56 -88
-2 0 -26 13 -52 28 -54 32 -204 97 -246 107 l-27 7 39 -76 c79 -155 89 -256
62 -647 -12 -160 -12 -227 -4 -305 26 -232 126 -457 272 -614 l52 -55 -21 40
c-11 22 -31 58 -43 80 -23 42 -69 178 -86 255 -23 103 -33 267 -22 348 15 112
25 132 71 132 20 0 41 5 47 11 9 9 16 8 27 -3 16 -16 66 -13 66 4 0 5 8 2 17
-7 13 -13 28 -16 64 -12 38 5 55 14 92 50 25 25 48 54 52 66 3 12 13 21 21 21
8 0 14 5 14 12 0 6 8 20 18 31 15 17 17 42 17 206 0 102 -3 226 -8 276 -4 55
-4 86 2 80 16 -17 114 -193 206 -370 70 -134 104 -186 159 -248 84 -93 94
-110 117 -199 31 -122 86 -165 168 -132 25 10 45 27 57 50 32 59 41 42 52 -93
11 -139 -11 -311 -54 -419 -31 -76 -113 -176 -193 -234 -33 -24 -59 -44 -58
-45 1 0 158 2 349 5 332 5 348 6 375 26 48 36 55 76 51 309 -3 235 -7 248 -71
279 -19 9 -55 16 -80 16 -72 0 -107 10 -107 31 0 10 9 23 19 29 13 6 175 10
459 10 567 0 522 -27 522 315 0 240 -4 260 -63 295 -31 19 -54 20 -497 20
-514 0 -566 3 -581 32 -6 11 -9 22 -6 24 2 2 78 8 170 12 156 7 168 9 192 32
38 36 45 78 45 288 0 209 -5 237 -54 282 l-28 25 -308 5 c-170 3 -310 7 -313
10 -2 3 -9 15 -16 27 -11 22 -17 23 -174 25 l-162 3 -3 102 c-1 55 3 140 11
187 7 47 13 86 12 86 -2 0 -35 -34 -74 -75z"/>
<path d="M3125 3111 c-34 -14 -74 -62 -80 -95 -4 -17 -5 -124 -3 -238 3 -191
5 -209 24 -235 40 -54 24 -53 662 -53 639 0 629 -1 666 52 23 33 24 474 1 518
-32 61 -17 60 -662 59 -323 0 -597 -4 -608 -8z"/>
<path d="M4554 3110 c-11 -4 -33 -22 -47 -40 l-27 -32 0 -231 c0 -212 2 -234
19 -261 36 -54 45 -55 322 -56 353 0 339 -13 339 310 0 236 -6 266 -62 300
-31 19 -49 20 -278 19 -135 0 -254 -4 -266 -9z"/>
<path d="M3864 2410 c-31 -12 -72 -66 -79 -103 -4 -19 -5 -124 -3 -234 3 -186
5 -204 24 -230 40 -54 24 -53 664 -53 640 0 624 -1 664 53 20 26 21 43 24 247
3 245 -2 275 -60 310 -32 19 -48 20 -623 19 -324 0 -599 -4 -611 -9z"/>
<path d="M3125 1710 c-27 -11 -61 -49 -74 -83 -7 -17 -11 -112 -11 -233 0
-228 5 -249 63 -284 31 -19 54 -20 625 -20 532 0 597 2 622 16 57 34 60 50 60
301 -1 247 -3 259 -56 294 -28 18 -52 19 -619 18 -324 0 -599 -4 -610 -9z"/>
<path d="M4518 1681 l-39 -40 3 -240 3 -241 33 -32 32 -33 258 -3 c364 -4 352
-14 352 313 0 231 -6 261 -62 295 -31 19 -50 20 -287 20 l-253 0 -40 -39z"/>
<path d="M787 1013 c-4 -3 -7 -165 -7 -360 l0 -353 95 0 95 0 0 360 0 360 -88
0 c-49 0 -92 -3 -95 -7z"/>
<path d="M1120 661 l0 -361 95 0 95 0 0 94 0 94 93 4 c101 5 139 19 195 72 49
46 74 101 80 177 7 107 -43 195 -142 247 -49 26 -58 27 -233 30 l-183 4 0
-361z m350 184 c36 -18 52 -47 52 -90 0 -72 -48 -105 -152 -105 l-60 0 0 105
0 105 65 0 c39 0 78 -6 95 -15z"/>
<path d="M1770 925 l0 -95 90 0 90 0 2 -262 3 -263 93 -3 92 -3 0 266 0 265
95 0 95 0 0 95 0 95 -280 0 -280 0 0 -95z"/>
<path d="M2676 968 c-13 -29 -87 -189 -165 -356 -77 -167 -141 -306 -141 -308
0 -2 42 -4 93 -4 l92 0 18 45 19 45 149 0 149 0 22 -45 22 -45 92 0 93 0 -40
87 c-22 49 -97 210 -167 358 l-128 270 -42 3 c-42 3 -42 3 -66 -50z m103 -334
c17 -36 31 -70 31 -75 0 -5 -29 -9 -65 -9 -52 0 -65 3 -65 15 0 16 57 135 64
135 2 0 18 -30 35 -66z"/>
<path d="M3230 1012 c-6 -2 -10 -132 -10 -359 l0 -354 203 3 c188 3 205 5 245
26 49 26 97 94 107 152 9 50 -10 117 -45 161 l-29 37 20 38 c16 30 19 53 17
101 -5 76 -41 136 -105 171 -37 20 -55 22 -217 25 -97 1 -181 1 -186 -1z m320
-184 c13 -25 13 -31 0 -55 -18 -31 -43 -39 -106 -35 l-44 4 0 59 0 60 67 -3
c62 -3 69 -5 83 -30z m22 -265 c22 -20 24 -66 2 -87 -21 -22 -50 -28 -115 -24
l-54 3 -3 63 -3 62 77 0 c58 0 82 -4 96 -17z"/>
<path d="M3894 1011 c-2 -2 -4 -163 -4 -358 l0 -353 225 0 226 0 -3 93 -3 92
-127 3 -128 3 0 259 0 259 -91 3 c-50 2 -93 1 -95 -1z"/>
<path d="M4487 1013 c-4 -3 -7 -165 -7 -360 l0 -353 220 0 220 0 0 75 0 74
-127 3 -128 3 0 65 0 65 113 3 112 3 0 74 0 74 -112 3 -113 3 -3 58 -3 57 131
0 130 0 0 73 0 74 -152 6 c-192 9 -273 9 -281 0z"/>
<path d="M5192 1003 c-150 -52 -192 -256 -75 -364 38 -36 79 -55 131 -62 51
-6 72 -21 72 -53 0 -53 -64 -72 -98 -29 -18 23 -27 25 -96 25 l-76 0 0 -27 c1
-44 34 -107 74 -140 143 -118 356 -21 358 163 1 109 -80 206 -184 220 -54 7
-88 31 -88 62 0 24 31 52 58 52 21 0 52 -24 52 -41 0 -5 37 -9 81 -9 l82 0 -6
42 c-7 53 -52 117 -102 145 -53 28 -128 35 -183 16z"/>
</g>
</svg>
